<mxfile host="app.diagrams.net" agent="Mozilla/5.0 (Windows NT 10.0; Win64; x64) AppleWebKit/537.36 (KHTML, like Gecko) Chrome/137.0.0.0 Safari/537.36" version="27.1.1">
  <diagram name="페이지-1" id="_fl9P3o_7f5csr9Jb_fa">
    <mxGraphModel dx="906" dy="1043" grid="1" gridSize="10" guides="1" tooltips="1" connect="1" arrows="1" fold="1" page="1" pageScale="1" pageWidth="827" pageHeight="1169" math="0" shadow="0">
      <root>
        <mxCell id="0" />
        <mxCell id="1" parent="0" />
        <mxCell id="QfQEfc8Ep59mAEumwmI2-65" value="" style="rounded=1;whiteSpace=wrap;html=1;" vertex="1" parent="1">
          <mxGeometry x="1290" y="1030" width="760" height="540" as="geometry" />
        </mxCell>
        <mxCell id="QfQEfc8Ep59mAEumwmI2-66" value="SOURCE_PIPELINE" style="rounded=1;whiteSpace=wrap;html=1;" vertex="1" parent="1">
          <mxGeometry x="1340" y="1150" width="120" height="60" as="geometry" />
        </mxCell>
        <mxCell id="QfQEfc8Ep59mAEumwmI2-67" value="" style="shape=flexArrow;endArrow=classic;html=1;rounded=0;" edge="1" parent="1">
          <mxGeometry width="50" height="50" relative="1" as="geometry">
            <mxPoint x="1490" y="1179.5" as="sourcePoint" />
            <mxPoint x="1560" y="1179.5" as="targetPoint" />
            <Array as="points" />
          </mxGeometry>
        </mxCell>
        <mxCell id="QfQEfc8Ep59mAEumwmI2-68" value="&lt;div&gt;&lt;br&gt;&lt;/div&gt;pre-process&lt;br&gt;&lt;div&gt;&lt;br&gt;&lt;/div&gt;&lt;div&gt;&lt;br&gt;&lt;/div&gt;&lt;div&gt;&lt;br&gt;&lt;/div&gt;&lt;div&gt;&lt;br&gt;&lt;/div&gt;&lt;div&gt;post-process&lt;/div&gt;&lt;div&gt;&lt;br&gt;&lt;/div&gt;" style="rounded=1;whiteSpace=wrap;html=1;" vertex="1" parent="1">
          <mxGeometry x="1580" y="1110" width="170" height="140" as="geometry" />
        </mxCell>
        <mxCell id="QfQEfc8Ep59mAEumwmI2-69" value="" style="shape=flexArrow;endArrow=classic;html=1;rounded=0;" edge="1" parent="1">
          <mxGeometry width="50" height="50" relative="1" as="geometry">
            <mxPoint x="1770" y="1179.5" as="sourcePoint" />
            <mxPoint x="1840" y="1179.5" as="targetPoint" />
          </mxGeometry>
        </mxCell>
        <mxCell id="QfQEfc8Ep59mAEumwmI2-70" value="TRACKER_PIPELINE" style="rounded=1;whiteSpace=wrap;html=1;" vertex="1" parent="1">
          <mxGeometry x="1860" y="1150" width="120" height="60" as="geometry" />
        </mxCell>
        <mxCell id="QfQEfc8Ep59mAEumwmI2-71" value="" style="shape=flexArrow;endArrow=classic;html=1;rounded=0;" edge="1" parent="1">
          <mxGeometry width="50" height="50" relative="1" as="geometry">
            <mxPoint x="1919.5" y="1250" as="sourcePoint" />
            <mxPoint x="1919.5" y="1310" as="targetPoint" />
          </mxGeometry>
        </mxCell>
        <mxCell id="QfQEfc8Ep59mAEumwmI2-72" value="DETECTION_PIPELINE" style="rounded=0;whiteSpace=wrap;html=1;" vertex="1" parent="1">
          <mxGeometry x="1590" y="1165" width="150" height="30" as="geometry" />
        </mxCell>
        <mxCell id="QfQEfc8Ep59mAEumwmI2-73" value="DETECTION_PIPELINE_WRAPPER" style="text;html=1;align=center;verticalAlign=middle;resizable=0;points=[];autosize=1;strokeColor=none;fillColor=none;" vertex="1" parent="1">
          <mxGeometry x="1555" y="1080" width="220" height="30" as="geometry" />
        </mxCell>
        <mxCell id="QfQEfc8Ep59mAEumwmI2-74" value="&lt;div&gt;&lt;br&gt;&lt;/div&gt;pre-process&lt;br&gt;&lt;div&gt;&lt;br&gt;&lt;/div&gt;&lt;div&gt;&lt;br&gt;&lt;/div&gt;&lt;div&gt;&lt;br&gt;&lt;/div&gt;&lt;div&gt;&lt;br&gt;&lt;/div&gt;&lt;div&gt;post-process&lt;/div&gt;&lt;div&gt;&lt;br&gt;&lt;/div&gt;" style="rounded=1;whiteSpace=wrap;html=1;" vertex="1" parent="1">
          <mxGeometry x="1835" y="1350" width="170" height="140" as="geometry" />
        </mxCell>
        <mxCell id="QfQEfc8Ep59mAEumwmI2-75" value="REID_PIPELINE" style="rounded=0;whiteSpace=wrap;html=1;" vertex="1" parent="1">
          <mxGeometry x="1845" y="1405" width="150" height="30" as="geometry" />
        </mxCell>
        <mxCell id="QfQEfc8Ep59mAEumwmI2-76" value="REID_PIPELINE_WRAPPER" style="text;html=1;align=center;verticalAlign=middle;resizable=0;points=[];autosize=1;strokeColor=none;fillColor=none;" vertex="1" parent="1">
          <mxGeometry x="1830" y="1320" width="180" height="30" as="geometry" />
        </mxCell>
        <mxCell id="QfQEfc8Ep59mAEumwmI2-77" value="" style="shape=flexArrow;endArrow=classic;html=1;rounded=0;" edge="1" parent="1">
          <mxGeometry width="50" height="50" relative="1" as="geometry">
            <mxPoint x="1810" y="1419.5" as="sourcePoint" />
            <mxPoint x="1740" y="1419.5" as="targetPoint" />
          </mxGeometry>
        </mxCell>
        <mxCell id="QfQEfc8Ep59mAEumwmI2-78" value="USER_CALLBACK&lt;div&gt;PIPELINE&lt;/div&gt;" style="rounded=1;whiteSpace=wrap;html=1;" vertex="1" parent="1">
          <mxGeometry x="1590" y="1390" width="120" height="60" as="geometry" />
        </mxCell>
        <mxCell id="QfQEfc8Ep59mAEumwmI2-79" value="" style="shape=flexArrow;endArrow=classic;html=1;rounded=0;" edge="1" parent="1">
          <mxGeometry width="50" height="50" relative="1" as="geometry">
            <mxPoint x="1560" y="1420" as="sourcePoint" />
            <mxPoint x="1490" y="1420" as="targetPoint" />
          </mxGeometry>
        </mxCell>
        <mxCell id="QfQEfc8Ep59mAEumwmI2-80" value="DISPLAY_PIPELINE" style="rounded=1;whiteSpace=wrap;html=1;" vertex="1" parent="1">
          <mxGeometry x="1340" y="1390" width="120" height="60" as="geometry" />
        </mxCell>
        <mxCell id="QfQEfc8Ep59mAEumwmI2-81" value="&lt;font style=&quot;font-size: 18px;&quot;&gt;&lt;b&gt;RASPBERRYPI5 + HAILO-8&lt;/b&gt;&lt;/font&gt;" style="text;html=1;align=center;verticalAlign=middle;resizable=0;points=[];autosize=1;strokeColor=none;fillColor=none;" vertex="1" parent="1">
          <mxGeometry x="1340" y="990" width="260" height="40" as="geometry" />
        </mxCell>
        <mxCell id="QfQEfc8Ep59mAEumwmI2-82" value="" style="endArrow=classic;html=1;rounded=0;" edge="1" parent="1">
          <mxGeometry width="50" height="50" relative="1" as="geometry">
            <mxPoint x="1610" y="1473" as="sourcePoint" />
            <mxPoint x="1610" y="1613" as="targetPoint" />
          </mxGeometry>
        </mxCell>
        <mxCell id="QfQEfc8Ep59mAEumwmI2-83" value="" style="endArrow=classic;html=1;rounded=0;" edge="1" parent="1">
          <mxGeometry width="50" height="50" relative="1" as="geometry">
            <mxPoint x="1654" y="1473" as="sourcePoint" />
            <mxPoint x="1654" y="1613" as="targetPoint" />
          </mxGeometry>
        </mxCell>
        <mxCell id="QfQEfc8Ep59mAEumwmI2-84" value="" style="endArrow=classic;html=1;rounded=0;" edge="1" parent="1">
          <mxGeometry width="50" height="50" relative="1" as="geometry">
            <mxPoint x="1700" y="1470" as="sourcePoint" />
            <mxPoint x="1700" y="1610" as="targetPoint" />
          </mxGeometry>
        </mxCell>
        <mxCell id="QfQEfc8Ep59mAEumwmI2-85" value="Target Distance &amp;amp; Position&lt;div&gt;SCAN MODE if target loss&lt;/div&gt;" style="text;html=1;align=center;verticalAlign=middle;resizable=0;points=[];autosize=1;strokeColor=none;fillColor=none;" vertex="1" parent="1">
          <mxGeometry x="1570" y="1613" width="160" height="40" as="geometry" />
        </mxCell>
      </root>
    </mxGraphModel>
  </diagram>
</mxfile>
